# xmcd
#
# Track frame offsets:
#	150
#	14192
#	35245
#	47917
#	58760
#	69969
#	80535
#	91101
#	103541
#	117402
#	130273
#	143856
#	154079
#	166115
#	177642
#	190559
#	200846
#	213570
#	226511
#	239094
#	252957
#	264055
#	277169
#	290807
#	302778
#
# Disc length: 4226 seconds
# Revision: 0
# Processed by: cddbd v1.5.2PL0 Copyright (c) Steve Scherf et al.
# Submitted via: dBpowerAMP V12.0
#
DISCID=79108019
DTITLE=Various Artist - The Blues [CD1 - Back to the Crossroads)
DYEAR=1900
DGENRE=Blues
TTITLE0=Etta James - I Just Want to Make Love To You
TTITLE1=B.B. King - Sweet Sixteen [Part One]
TTITLE2=Howlin' Wolf - Back Door Man
TTITLE3=John Lee Hooker - No Shoes
TTITLE4=Willie Dixon and Memphis Slim - Beer Drinking Woman
TTITLE5=Elmore James - Done Somebody Wrong
TTITLE6=Jimmy Reed - Baby What You Want Me To Do
TTITLE7=Howlin' Wolf - Spoonful
TTITLE8=Bo Diddley - Before You Accuse Me (Take a Look At Yourself)
TTITLE9=Muddy Waters - Forty Days and Forty Nights
TTITLE10=B.B. King - Sweet Little Angel
TTITLE11=Little Willie John - Need Your Love So Bad
TTITLE12=Little Walter - My Babe
TTITLE13=Sonny Boy Williamson (II) - Don't Start Me To Talkin'
TTITLE14=J. B. Lenoir - Eisenhower Blues
TTITLE15=Lightnin' Hopkins - Movin' On Out Boogie
TTITLE16=Muddy Waters - I'm Your Hoochie Coochie Man
TTITLE17=Doctor Ross - Chicago Breakdown
TTITLE18=Little Walter - Off The Wall
TTITLE19=Roscoe Gordon - Booted
TTITLE20=Arthur "Big Boy" Crudup - My Baby Left Me
TTITLE21=John Lee Hooker - Hoogie Boogie
TTITLE22=Leadbelly - Where Did You Sleep Last Night
TTITLE23=Robert Johnson - Cross Roads Blues
TTITLE24=Bessie Smith - St Louis Blues
EXTD=
EXTT0=
EXTT1=
EXTT2=
EXTT3=
EXTT4=
EXTT5=
EXTT6=
EXTT7=
EXTT8=
EXTT9=
EXTT10=
EXTT11=
EXTT12=
EXTT13=
EXTT14=
EXTT15=
EXTT16=
EXTT17=
EXTT18=
EXTT19=
EXTT20=
EXTT21=
EXTT22=
EXTT23=
EXTT24=
PLAYORDER=
